<svg width="432" height="222" viewBox="0 0 432 222" version="1.1" xmlns="http://www.w3.org/2000/svg" xmlns:xlink="http://www.w3.org/1999/xlink" xmlns:figma="http://www.figma.com/figma/ns">
<title>Component</title>
<desc>Created using Figma</desc>
<g id="Canvas" transform="translate(58 216)" figma:type="canvas">
<g id="Component" style="mix-blend-mode:normal;" figma:type="symbol">
<g id="Group" style="mix-blend-mode:normal;" figma:type="frame">
<g id="Rectangle 2" style="mix-blend-mode:normal;" figma:type="rounded-rectangle">
<use xlink:href="#path0_fill" transform="translate(-50 -149)" fill="#FFFFFF" style="mix-blend-mode:normal;"/>
</g>
<g id="Rectangle 2" style="mix-blend-mode:normal;" figma:type="rounded-rectangle">
<use xlink:href="#path0_fill" transform="translate(-50.5 -169)" fill="#FFFFFF" style="mix-blend-mode:normal;"/>
</g>
<g id="Group" style="mix-blend-mode:normal;" figma:type="frame">
<g id="Rectangle 2" style="mix-blend-mode:normal;" figma:type="rounded-rectangle">
<use xlink:href="#path1_fill" transform="translate(-42 -206)" fill="#FFFFFF" style="mix-blend-mode:normal;"/>
</g>
<g id="Ellipse" style="mix-blend-mode:normal;" figma:type="ellipse">
<use xlink:href="#path2_fill" transform="translate(-42 -215.5)" fill="#FFFFFF" style="mix-blend-mode:normal;"/>
</g>
</g>
<g id="Group" style="mix-blend-mode:normal;" figma:type="frame">
<g id="Rectangle" style="mix-blend-mode:normal;" figma:type="rounded-rectangle">
<use xlink:href="#path3_fill" transform="translate(-50 -129)" fill="#FFFFFF" style="mix-blend-mode:normal;"/>
</g>
<g id="Ellipse 2" style="mix-blend-mode:normal;" figma:type="ellipse">
<use xlink:href="#path4_fill" transform="translate(-50 -21.5)" fill="#FFFFFF" style="mix-blend-mode:normal;"/>
</g>
</g>
<g id="Rectangle 3" style="mix-blend-mode:normal;" figma:type="rounded-rectangle">
<use xlink:href="#path5_fill" transform="translate(-58 -122)" fill="#FFFFFF" style="mix-blend-mode:normal;"/>
</g>
</g>
<g id="AuxQ" style="mix-blend-mode:normal;" figma:type="text">
<use xlink:href="#path6_fill" transform="translate(8 -194)" fill="#FFFFFF" style="mix-blend-mode:normal;"/>
</g>
</g>
</g>
<defs>
<path id="path0_fill" d="M 0 0L 35 0L 35 13L 0 13L 0 0Z"/>
<path id="path1_fill" d="M 0 0L 18 0L 18 30L 0 30L 0 0Z"/>
<path id="path2_fill" d="M 18 9.5C 18 14.7467 13.9706 19 9 19C 4.02944 19 0 14.7467 0 9.5C 0 4.25329 4.02944 0 9 0C 13.9706 0 18 4.25329 18 9.5Z"/>
<path id="path3_fill" d="M 0 0L 35 0L 35 121L 0 121L 0 0Z"/>
<path id="path4_fill" d="M 35 13.5C 35 20.9558 27.165 27 17.5 27C 7.83502 27 0 20.9558 0 13.5C 0 6.04416 7.83502 0 17.5 0C 27.165 0 35 6.04416 35 13.5Z"/>
<path id="path5_fill" d="M 0 0L 50 0L 50 106L 0 106L 0 0Z"/>
<path id="path6_fill" d="M 68.6953 101.711L 68.6953 81.5312C 68.6953 78.7656 68.1562 76.1641 67.0781 73.7266C 66.0469 71.2422 64.6172 69.0859 62.7891 67.2578C 60.9609 65.4297 58.8047 64 56.3203 62.9688C 53.8828 61.8906 51.2812 61.3516 48.5156 61.3516C 45.75 61.3516 43.125 61.8906 40.6406 62.9688C 38.2031 64 36.0703 65.4297 34.2422 67.2578C 32.4141 69.0859 30.9609 71.2422 29.8828 73.7266C 28.8516 76.1641 28.3359 78.7656 28.3359 81.5312L 28.3359 101.711L 68.6953 101.711ZM 88.875 142L 68.6953 142L 68.6953 121.82L 28.3359 121.82L 28.3359 142L 8.22656 142L 8.22656 81.5312C 8.22656 75.9531 9.28125 70.7266 11.3906 65.8516C 13.5 60.9297 16.3594 56.6406 19.9688 52.9844C 23.625 49.3281 27.8906 46.4453 32.7656 44.3359C 37.6875 42.2266 42.9375 41.1719 48.5156 41.1719C 54.0937 41.1719 59.3203 42.2266 64.1953 44.3359C 69.1172 46.4453 73.4062 49.3281 77.0625 52.9844C 80.7188 56.6406 83.6016 60.9297 85.7109 65.8516C 87.8203 70.7266 88.875 75.9531 88.875 81.5312L 88.875 142ZM 159.258 133.211C 157.711 134.617 156.047 135.953 154.266 137.219C 152.531 138.437 150.703 139.516 148.781 140.453C 146.859 141.344 144.867 142.047 142.805 142.562C 140.789 143.125 138.727 143.406 136.617 143.406C 131.977 143.406 127.617 142.586 123.539 140.945C 119.461 139.305 115.875 136.984 112.781 133.984C 109.734 130.938 107.32 127.258 105.539 122.945C 103.805 118.586 102.938 113.711 102.938 108.32L 102.938 66.6953L 122.062 66.6953L 122.062 108.32C 122.062 110.852 122.438 113.125 123.188 115.141C 123.984 117.109 125.039 118.773 126.352 120.133C 127.664 121.492 129.188 122.523 130.922 123.227C 132.703 123.93 134.602 124.281 136.617 124.281C 138.586 124.281 140.437 123.836 142.172 122.945C 143.953 122.008 145.5 120.789 146.812 119.289C 148.125 117.789 149.156 116.102 149.906 114.227C 150.656 112.305 151.031 110.336 151.031 108.32L 151.031 66.6953L 170.227 66.6953L 170.227 142L 165.586 142L 159.258 133.211ZM 253.969 142L 230.484 142L 215.508 118.938L 200.391 142L 176.906 142L 204.398 103.398L 176.906 66.2734L 200.391 66.2734L 215.508 87.8594L 230.484 66.2734L 253.969 66.2734L 226.406 103.398L 253.969 142ZM 348.188 162.18L 325.266 162.18L 313.172 144.039C 312.516 144.133 311.883 144.18 311.273 144.18C 310.711 144.18 310.148 144.18 309.586 144.18C 304.805 144.18 300.187 143.547 295.734 142.281C 291.328 141.063 287.18 139.328 283.289 137.078C 279.445 134.781 275.93 132.039 272.742 128.852C 269.555 125.664 266.813 122.148 264.516 118.305C 262.266 114.414 260.508 110.266 259.242 105.859C 258.023 101.406 257.414 96.7891 257.414 92.0078C 257.414 87.2266 258.023 82.6094 259.242 78.1562C 260.508 73.7031 262.266 69.5547 264.516 65.7109C 266.813 61.8672 269.555 58.3516 272.742 55.1641C 275.93 51.9766 279.445 49.2578 283.289 47.0078C 287.18 44.7578 291.328 43.0234 295.734 41.8047C 300.187 40.5391 304.805 39.9062 309.586 39.9062C 314.367 39.9062 318.984 40.5391 323.438 41.8047C 327.891 43.0234 332.039 44.7578 335.883 47.0078C 339.727 49.2578 343.242 51.9766 346.43 55.1641C 349.617 58.3516 352.336 61.8672 354.586 65.7109C 356.836 69.5547 358.57 73.7031 359.789 78.1562C 361.055 82.6094 361.688 87.2266 361.688 92.0078C 361.688 96.9766 360.984 101.805 359.578 106.492C 358.219 111.18 356.273 115.562 353.742 119.641C 351.211 123.672 348.141 127.328 344.531 130.609C 340.969 133.891 336.984 136.633 332.578 138.836L 348.188 162.18ZM 341.648 92.0078C 341.648 87.6016 340.805 83.4531 339.117 79.5625C 337.43 75.625 335.133 72.2266 332.227 69.3672C 329.367 66.4609 325.969 64.1641 322.031 62.4766C 318.141 60.7891 313.992 59.9453 309.586 59.9453C 305.133 59.9453 300.961 60.7891 297.07 62.4766C 293.18 64.1641 289.781 66.4609 286.875 69.3672C 283.969 72.2266 281.672 75.625 279.984 79.5625C 278.297 83.4531 277.453 87.6016 277.453 92.0078C 277.453 96.4141 278.297 100.563 279.984 104.453C 281.672 108.297 283.969 111.672 286.875 114.578C 289.781 117.484 293.18 119.781 297.07 121.469C 300.961 123.156 305.133 124 309.586 124C 313.992 124 318.141 123.156 322.031 121.469C 325.969 119.781 329.367 117.484 332.227 114.578C 335.133 111.672 337.43 108.297 339.117 104.453C 340.805 100.563 341.648 96.4141 341.648 92.0078Z"/>
</defs>
</svg>
